<svg width="225" height="65" viewBox="0 0 225 65" fill="none" xmlns="http://www.w3.org/2000/svg">
<ellipse cx="112.029" cy="32.5" rx="112.029" ry="32.5" fill="white"/>
<path d="M71.9 27.5V20L76.7 17H83.6V38H75.8V25.1L71.9 27.5ZM86.4641 38V31.85L93.6641 28.1C95.6841 27.06 96.9641 26.32 97.5041 25.88C98.0441 25.42 98.3141 24.91 98.3141 24.35C98.3141 23.91 98.1241 23.53 97.7441 23.21C97.3841 22.87 96.8741 22.7 96.2141 22.7C95.3341 22.7 94.6741 23 94.2341 23.6C94.0541 23.84 93.9141 24.14 93.8141 24.5H86.3141C86.5941 23 87.1341 21.65 87.9341 20.45C89.7941 17.75 92.6541 16.4 96.5141 16.4C99.4741 16.4 101.814 17.12 103.534 18.56C105.254 19.98 106.114 21.71 106.114 23.75C106.114 24.67 105.924 25.54 105.544 26.36C105.164 27.18 104.704 27.86 104.164 28.4C103.644 28.92 103.034 29.4 102.334 29.84C101.634 30.28 101.044 30.61 100.564 30.83C100.104 31.03 99.6441 31.21 99.1841 31.37L98.6141 31.55L98.0141 31.7L97.5641 31.85V32.18L99.6641 31.85H106.114V38H86.4641ZM108.202 35.15C108.202 34.25 108.522 33.48 109.162 32.84C109.822 32.18 110.602 31.85 111.502 31.85C112.382 31.85 113.152 32.18 113.812 32.84C114.472 33.5 114.802 34.27 114.802 35.15C114.802 36.05 114.472 36.83 113.812 37.49C113.172 38.13 112.402 38.45 111.502 38.45C110.582 38.45 109.802 38.13 109.162 37.49C108.522 36.85 108.202 36.07 108.202 35.15ZM108.202 24.95C108.202 24.05 108.522 23.28 109.162 22.64C109.822 21.98 110.602 21.65 111.502 21.65C112.382 21.65 113.152 21.98 113.812 22.64C114.472 23.3 114.802 24.07 114.802 24.95C114.802 25.85 114.472 26.63 113.812 27.29C113.172 27.93 112.402 28.25 111.502 28.25C110.582 28.25 109.802 27.93 109.162 27.29C108.522 26.65 108.202 25.87 108.202 24.95ZM116.904 38V31.85L124.104 28.1C126.124 27.06 127.404 26.32 127.944 25.88C128.484 25.42 128.754 24.91 128.754 24.35C128.754 23.91 128.564 23.53 128.184 23.21C127.824 22.87 127.314 22.7 126.654 22.7C125.774 22.7 125.114 23 124.674 23.6C124.494 23.84 124.354 24.14 124.254 24.5H116.754C117.034 23 117.574 21.65 118.374 20.45C120.234 17.75 123.094 16.4 126.954 16.4C129.914 16.4 132.254 17.12 133.974 18.56C135.694 19.98 136.554 21.71 136.554 23.75C136.554 24.67 136.364 25.54 135.984 26.36C135.604 27.18 135.144 27.86 134.604 28.4C134.084 28.92 133.474 29.4 132.774 29.84C132.074 30.28 131.484 30.61 131.004 30.83C130.544 31.03 130.084 31.21 129.624 31.37L129.054 31.55L128.454 31.7L128.004 31.85V32.18L130.104 31.85H136.554V38H116.904ZM138.492 27.5V20L143.292 17H150.192V38H142.392V25.1L138.492 27.5Z" fill="black"/>
<path d="M75.4544 47.472C74.9957 47.04 74.7664 46.5093 74.7664 45.88C74.7664 45.2507 74.9957 44.72 75.4544 44.288C75.9131 43.856 76.4971 43.64 77.2064 43.64C78.1397 43.64 78.8251 43.9547 79.2624 44.584C79.4544 44.8667 79.5824 45.1787 79.6464 45.52H77.7664C77.7397 45.4293 77.7024 45.3573 77.6544 45.304C77.5424 45.1547 77.3931 45.08 77.2064 45.08C77.0357 45.08 76.8997 45.1467 76.7984 45.28C76.6971 45.408 76.6464 45.608 76.6464 45.88C76.6464 46.152 76.6971 46.3547 76.7984 46.488C76.8997 46.616 77.0357 46.68 77.2064 46.68C77.3984 46.68 77.5477 46.608 77.6544 46.464C77.7024 46.4053 77.7397 46.3307 77.7664 46.24H79.6464C79.5824 46.5867 79.4544 46.9013 79.2624 47.184C78.8411 47.808 78.1557 48.12 77.2064 48.12C76.4971 48.12 75.9131 47.904 75.4544 47.472ZM80.2077 48V42.4H82.0477V44.36H82.1277C82.2023 44.2267 82.3037 44.1067 82.4317 44C82.7143 43.76 83.0263 43.64 83.3677 43.64C83.8423 43.64 84.213 43.7893 84.4797 44.088C84.7517 44.3813 84.8877 44.8053 84.8877 45.36V48H83.0477V45.68C83.0477 45.5147 83.0077 45.3867 82.9277 45.296C82.8477 45.2053 82.741 45.16 82.6077 45.16C82.4423 45.16 82.3063 45.2187 82.1997 45.336C82.0983 45.448 82.0477 45.6027 82.0477 45.8V48H80.2077ZM86.103 47.48C85.639 47.048 85.407 46.5147 85.407 45.88C85.407 45.2453 85.639 44.7147 86.103 44.288C86.5724 43.856 87.1804 43.64 87.927 43.64C88.6684 43.64 89.2737 43.856 89.743 44.288C90.2124 44.7147 90.447 45.2453 90.447 45.88C90.447 46.5147 90.2124 47.048 89.743 47.48C89.2737 47.9067 88.6684 48.12 87.927 48.12C87.1804 48.12 86.5724 47.9067 86.103 47.48ZM87.463 45.296C87.3457 45.4347 87.287 45.6293 87.287 45.88C87.287 46.1307 87.3457 46.328 87.463 46.472C87.5857 46.6107 87.7404 46.68 87.927 46.68C88.1137 46.68 88.2657 46.6107 88.383 46.472C88.5057 46.328 88.567 46.1307 88.567 45.88C88.567 45.6293 88.5057 45.4347 88.383 45.296C88.2657 45.152 88.1137 45.08 87.927 45.08C87.7404 45.08 87.5857 45.152 87.463 45.296ZM91.5405 47.48C91.0765 47.048 90.8445 46.5147 90.8445 45.88C90.8445 45.2453 91.0765 44.7147 91.5405 44.288C92.0099 43.856 92.6179 43.64 93.3645 43.64C94.1059 43.64 94.7112 43.856 95.1805 44.288C95.6499 44.7147 95.8845 45.2453 95.8845 45.88C95.8845 46.5147 95.6499 47.048 95.1805 47.48C94.7112 47.9067 94.1059 48.12 93.3645 48.12C92.6179 48.12 92.0099 47.9067 91.5405 47.48ZM92.9005 45.296C92.7832 45.4347 92.7245 45.6293 92.7245 45.88C92.7245 46.1307 92.7832 46.328 92.9005 46.472C93.0232 46.6107 93.1779 46.68 93.3645 46.68C93.5512 46.68 93.7032 46.6107 93.8205 46.472C93.9432 46.328 94.0045 46.1307 94.0045 45.88C94.0045 45.6293 93.9432 45.4347 93.8205 45.296C93.7032 45.152 93.5512 45.08 93.3645 45.08C93.1779 45.08 93.0232 45.152 92.9005 45.296ZM96.242 46.6H97.962C97.9674 46.6533 97.994 46.7067 98.042 46.76C98.1274 46.8667 98.274 46.92 98.482 46.92C98.722 46.92 98.842 46.8667 98.842 46.76C98.842 46.696 98.7994 46.6453 98.714 46.608C98.6287 46.5707 98.482 46.528 98.274 46.48C98.2474 46.4747 98.226 46.4693 98.21 46.464C98.05 46.4267 97.938 46.4 97.874 46.384C97.81 46.368 97.698 46.336 97.538 46.288C97.378 46.24 97.2607 46.1947 97.186 46.152C97.1114 46.1093 97.0127 46.0507 96.89 45.976C96.7727 45.896 96.6847 45.8133 96.626 45.728C96.5674 45.6427 96.514 45.5387 96.466 45.416C96.4234 45.288 96.402 45.1493 96.402 45C96.402 44.6107 96.5754 44.288 96.922 44.032C97.2687 43.7707 97.7754 43.64 98.442 43.64C99.2634 43.64 99.8794 43.888 100.29 44.384C100.471 44.608 100.589 44.8533 100.642 45.12H98.922C98.906 45.0773 98.8847 45.032 98.858 44.984C98.7834 44.888 98.6847 44.84 98.562 44.84C98.3754 44.84 98.282 44.8933 98.282 45C98.282 45.0587 98.33 45.1067 98.426 45.144C98.5274 45.1813 98.69 45.2213 98.914 45.264C99.058 45.296 99.1434 45.3173 99.17 45.328C99.202 45.3333 99.2874 45.3547 99.426 45.392C99.57 45.4293 99.666 45.4587 99.714 45.48C99.762 45.5013 99.8447 45.5387 99.962 45.592C100.079 45.64 100.162 45.6853 100.21 45.728C100.258 45.7707 100.322 45.8293 100.402 45.904C100.487 45.9733 100.546 46.048 100.578 46.128C100.615 46.2027 100.647 46.2907 100.674 46.392C100.706 46.4933 100.722 46.6027 100.722 46.72C100.722 47.1147 100.533 47.448 100.154 47.72C99.7807 47.9867 99.2367 48.12 98.522 48.12C97.6207 48.12 96.9754 47.8667 96.586 47.36C96.4154 47.1467 96.3007 46.8933 96.242 46.6ZM101.767 47.472C101.308 47.04 101.079 46.5093 101.079 45.88C101.079 45.2507 101.308 44.72 101.767 44.288C102.226 43.856 102.81 43.64 103.519 43.64C104.228 43.64 104.812 43.856 105.271 44.288C105.73 44.72 105.959 45.2507 105.959 45.88V46H102.959C102.959 46.56 103.146 46.84 103.519 46.84C103.674 46.84 103.81 46.7813 103.927 46.664C103.98 46.6 104.018 46.5387 104.039 46.48H105.919C105.823 46.7893 105.671 47.064 105.463 47.304C104.983 47.848 104.335 48.12 103.519 48.12C102.81 48.12 102.226 47.904 101.767 47.472ZM102.999 45.48H104.039C104.034 45.3947 104.007 45.3013 103.959 45.2C103.858 45.0133 103.711 44.92 103.519 44.92C103.327 44.92 103.18 45.0133 103.079 45.2C103.031 45.3013 103.004 45.3947 102.999 45.48ZM108.482 43.76H110.322L110.922 46.48H111.042L111.642 43.76H113.522L112.01 49.52H110.162L110.602 48H109.522L108.482 43.76ZM114.416 47.48C113.952 47.048 113.72 46.5147 113.72 45.88C113.72 45.2453 113.952 44.7147 114.416 44.288C114.885 43.856 115.493 43.64 116.24 43.64C116.981 43.64 117.586 43.856 118.056 44.288C118.525 44.7147 118.76 45.2453 118.76 45.88C118.76 46.5147 118.525 47.048 118.056 47.48C117.586 47.9067 116.981 48.12 116.24 48.12C115.493 48.12 114.885 47.9067 114.416 47.48ZM115.776 45.296C115.658 45.4347 115.6 45.6293 115.6 45.88C115.6 46.1307 115.658 46.328 115.776 46.472C115.898 46.6107 116.053 46.68 116.24 46.68C116.426 46.68 116.578 46.6107 116.696 46.472C116.818 46.328 116.88 46.1307 116.88 45.88C116.88 45.6293 116.818 45.4347 116.696 45.296C116.578 45.152 116.426 45.08 116.24 45.08C116.053 45.08 115.898 45.152 115.776 45.296ZM119.317 46.4V43.76H121.157V46.08C121.157 46.2453 121.197 46.3733 121.277 46.464C121.357 46.5547 121.464 46.6 121.597 46.6C121.762 46.6 121.896 46.544 121.997 46.432C122.104 46.3147 122.157 46.1573 122.157 45.96V43.76H123.997V48H122.157V47.4H122.077C122.002 47.5333 121.901 47.6533 121.773 47.76C121.49 48 121.178 48.12 120.837 48.12C120.362 48.12 119.989 47.9733 119.717 47.68C119.45 47.3813 119.317 46.9547 119.317 46.4ZM124.715 48V43.76H126.475V44.4H126.555C126.603 44.272 126.673 44.152 126.763 44.04C126.961 43.8 127.211 43.68 127.515 43.68H127.875V45.44H127.107C126.91 45.44 126.769 45.4827 126.683 45.568C126.598 45.648 126.555 45.7787 126.555 45.96V48H124.715ZM130.559 48V42.4H132.399V46.76H133.359V48H130.559ZM134.337 47.48C133.873 47.048 133.641 46.5147 133.641 45.88C133.641 45.2453 133.873 44.7147 134.337 44.288C134.807 43.856 135.415 43.64 136.161 43.64C136.903 43.64 137.508 43.856 137.977 44.288C138.447 44.7147 138.681 45.2453 138.681 45.88C138.681 46.5147 138.447 47.048 137.977 47.48C137.508 47.9067 136.903 48.12 136.161 48.12C135.415 48.12 134.807 47.9067 134.337 47.48ZM135.697 45.296C135.58 45.4347 135.521 45.6293 135.521 45.88C135.521 46.1307 135.58 46.328 135.697 46.472C135.82 46.6107 135.975 46.68 136.161 46.68C136.348 46.68 136.5 46.6107 136.617 46.472C136.74 46.328 136.801 46.1307 136.801 45.88C136.801 45.6293 136.74 45.4347 136.617 45.296C136.5 45.152 136.348 45.08 136.161 45.08C135.975 45.08 135.82 45.152 135.697 45.296ZM139.775 47.48C139.311 47.048 139.079 46.5147 139.079 45.88C139.079 45.2453 139.311 44.7147 139.775 44.288C140.244 43.856 140.852 43.64 141.599 43.64C142.34 43.64 142.946 43.856 143.415 44.288C143.884 44.7147 144.119 45.2453 144.119 45.88C144.119 46.5147 143.884 47.048 143.415 47.48C142.946 47.9067 142.34 48.12 141.599 48.12C140.852 48.12 140.244 47.9067 139.775 47.48ZM141.135 45.296C141.018 45.4347 140.959 45.6293 140.959 45.88C140.959 46.1307 141.018 46.328 141.135 46.472C141.258 46.6107 141.412 46.68 141.599 46.68C141.786 46.68 141.938 46.6107 142.055 46.472C142.178 46.328 142.239 46.1307 142.239 45.88C142.239 45.6293 142.178 45.4347 142.055 45.296C141.938 45.152 141.786 45.08 141.599 45.08C141.412 45.08 141.258 45.152 141.135 45.296ZM144.676 48V42.4H146.516V45.12H146.796L147.436 43.76H149.316L148.316 45.8L149.436 48H147.556L146.876 46.64H146.516V48H144.676Z" fill="black"/>
</svg>
