<svg width="0" height="0" class="hidden">
  <symbol fill="none" xmlns="http://www.w3.org/2000/svg" viewBox="0 0 225 65" id="Group 1">
    <ellipse cx="112.029" cy="32.5" rx="112.029" ry="32.5" fill="white"></ellipse>
    <path d="M71.9 27.5V20L76.7 17H83.6V38H75.8V25.1L71.9 27.5ZM86.4641 38V31.85L93.6641 28.1C95.6841 27.06 96.9641 26.32 97.5041 25.88C98.0441 25.42 98.3141 24.91 98.3141 24.35C98.3141 23.91 98.1241 23.53 97.7441 23.21C97.3841 22.87 96.8741 22.7 96.2141 22.7C95.3341 22.7 94.6741 23 94.2341 23.6C94.0541 23.84 93.9141 24.14 93.8141 24.5H86.3141C86.5941 23 87.1341 21.65 87.9341 20.45C89.7941 17.75 92.6541 16.4 96.5141 16.4C99.4741 16.4 101.814 17.12 103.534 18.56C105.254 19.98 106.114 21.71 106.114 23.75C106.114 24.67 105.924 25.54 105.544 26.36C105.164 27.18 104.704 27.86 104.164 28.4C103.644 28.92 103.034 29.4 102.334 29.84C101.634 30.28 101.044 30.61 100.564 30.83C100.104 31.03 99.6441 31.21 99.1841 31.37L98.6141 31.55L98.0141 31.7L97.5641 31.85V32.18L99.6641 31.85H106.114V38H86.4641ZM108.202 35.15C108.202 34.25 108.522 33.48 109.162 32.84C109.822 32.18 110.602 31.85 111.502 31.85C112.382 31.85 113.152 32.18 113.812 32.84C114.472 33.5 114.802 34.27 114.802 35.15C114.802 36.05 114.472 36.83 113.812 37.49C113.172 38.13 112.402 38.45 111.502 38.45C110.582 38.45 109.802 38.13 109.162 37.49C108.522 36.85 108.202 36.07 108.202 35.15ZM108.202 24.95C108.202 24.05 108.522 23.28 109.162 22.64C109.822 21.98 110.602 21.65 111.502 21.65C112.382 21.65 113.152 21.98 113.812 22.64C114.472 23.3 114.802 24.07 114.802 24.95C114.802 25.85 114.472 26.63 113.812 27.29C113.172 27.93 112.402 28.25 111.502 28.25C110.582 28.25 109.802 27.93 109.162 27.29C108.522 26.65 108.202 25.87 108.202 24.95ZM116.904 38V31.85L124.104 28.1C126.124 27.06 127.404 26.32 127.944 25.88C128.484 25.42 128.754 24.91 128.754 24.35C128.754 23.91 128.564 23.53 128.184 23.21C127.824 22.87 127.314 22.7 126.654 22.7C125.774 22.7 125.114 23 124.674 23.6C124.494 23.84 124.354 24.14 124.254 24.5H116.754C117.034 23 117.574 21.65 118.374 20.45C120.234 17.75 123.094 16.4 126.954 16.4C129.914 16.4 132.254 17.12 133.974 18.56C135.694 19.98 136.554 21.71 136.554 23.75C136.554 24.67 136.364 25.54 135.984 26.36C135.604 27.18 135.144 27.86 134.604 28.4C134.084 28.92 133.474 29.4 132.774 29.84C132.074 30.28 131.484 30.61 131.004 30.83C130.544 31.03 130.084 31.21 129.624 31.37L129.054 31.55L128.454 31.7L128.004 31.85V32.18L130.104 31.85H136.554V38H116.904ZM138.492 27.5V20L143.292 17H150.192V38H142.392V25.1L138.492 27.5Z" fill="black"></path>
    <path d="M75.4544 47.472C74.9957 47.04 74.7664 46.5093 74.7664 45.88C74.7664 45.2507 74.9957 44.72 75.4544 44.288C75.9131 43.856 76.4971 43.64 77.2064 43.64C78.1397 43.64 78.8251 43.9547 79.2624 44.584C79.4544 44.8667 79.5824 45.1787 79.6464 45.52H77.7664C77.7397 45.4293 77.7024 45.3573 77.6544 45.304C77.5424 45.1547 77.3931 45.08 77.2064 45.08C77.0357 45.08 76.8997 45.1467 76.7984 45.28C76.6971 45.408 76.6464 45.608 76.6464 45.88C76.6464 46.152 76.6971 46.3547 76.7984 46.488C76.8997 46.616 77.0357 46.68 77.2064 46.68C77.3984 46.68 77.5477 46.608 77.6544 46.464C77.7024 46.4053 77.7397 46.3307 77.7664 46.24H79.6464C79.5824 46.5867 79.4544 46.9013 79.2624 47.184C78.8411 47.808 78.1557 48.12 77.2064 48.12C76.4971 48.12 75.9131 47.904 75.4544 47.472ZM80.2077 48V42.4H82.0477V44.36H82.1277C82.2023 44.2267 82.3037 44.1067 82.4317 44C82.7143 43.76 83.0263 43.64 83.3677 43.64C83.8423 43.64 84.213 43.7893 84.4797 44.088C84.7517 44.3813 84.8877 44.8053 84.8877 45.36V48H83.0477V45.68C83.0477 45.5147 83.0077 45.3867 82.9277 45.296C82.8477 45.2053 82.741 45.16 82.6077 45.16C82.4423 45.16 82.3063 45.2187 82.1997 45.336C82.0983 45.448 82.0477 45.6027 82.0477 45.8V48H80.2077ZM86.103 47.48C85.639 47.048 85.407 46.5147 85.407 45.88C85.407 45.2453 85.639 44.7147 86.103 44.288C86.5724 43.856 87.1804 43.64 87.927 43.64C88.6684 43.64 89.2737 43.856 89.743 44.288C90.2124 44.7147 90.447 45.2453 90.447 45.88C90.447 46.5147 90.2124 47.048 89.743 47.48C89.2737 47.9067 88.6684 48.12 87.927 48.12C87.1804 48.12 86.5724 47.9067 86.103 47.48ZM87.463 45.296C87.3457 45.4347 87.287 45.6293 87.287 45.88C87.287 46.1307 87.3457 46.328 87.463 46.472C87.5857 46.6107 87.7404 46.68 87.927 46.68C88.1137 46.68 88.2657 46.6107 88.383 46.472C88.5057 46.328 88.567 46.1307 88.567 45.88C88.567 45.6293 88.5057 45.4347 88.383 45.296C88.2657 45.152 88.1137 45.08 87.927 45.08C87.7404 45.08 87.5857 45.152 87.463 45.296ZM91.5405 47.48C91.0765 47.048 90.8445 46.5147 90.8445 45.88C90.8445 45.2453 91.0765 44.7147 91.5405 44.288C92.0099 43.856 92.6179 43.64 93.3645 43.64C94.1059 43.64 94.7112 43.856 95.1805 44.288C95.6499 44.7147 95.8845 45.2453 95.8845 45.88C95.8845 46.5147 95.6499 47.048 95.1805 47.48C94.7112 47.9067 94.1059 48.12 93.3645 48.12C92.6179 48.12 92.0099 47.9067 91.5405 47.48ZM92.9005 45.296C92.7832 45.4347 92.7245 45.6293 92.7245 45.88C92.7245 46.1307 92.7832 46.328 92.9005 46.472C93.0232 46.6107 93.1779 46.68 93.3645 46.68C93.5512 46.68 93.7032 46.6107 93.8205 46.472C93.9432 46.328 94.0045 46.1307 94.0045 45.88C94.0045 45.6293 93.9432 45.4347 93.8205 45.296C93.7032 45.152 93.5512 45.08 93.3645 45.08C93.1779 45.08 93.0232 45.152 92.9005 45.296ZM96.242 46.6H97.962C97.9674 46.6533 97.994 46.7067 98.042 46.76C98.1274 46.8667 98.274 46.92 98.482 46.92C98.722 46.92 98.842 46.8667 98.842 46.76C98.842 46.696 98.7994 46.6453 98.714 46.608C98.6287 46.5707 98.482 46.528 98.274 46.48C98.2474 46.4747 98.226 46.4693 98.21 46.464C98.05 46.4267 97.938 46.4 97.874 46.384C97.81 46.368 97.698 46.336 97.538 46.288C97.378 46.24 97.2607 46.1947 97.186 46.152C97.1114 46.1093 97.0127 46.0507 96.89 45.976C96.7727 45.896 96.6847 45.8133 96.626 45.728C96.5674 45.6427 96.514 45.5387 96.466 45.416C96.4234 45.288 96.402 45.1493 96.402 45C96.402 44.6107 96.5754 44.288 96.922 44.032C97.2687 43.7707 97.7754 43.64 98.442 43.64C99.2634 43.64 99.8794 43.888 100.29 44.384C100.471 44.608 100.589 44.8533 100.642 45.12H98.922C98.906 45.0773 98.8847 45.032 98.858 44.984C98.7834 44.888 98.6847 44.84 98.562 44.84C98.3754 44.84 98.282 44.8933 98.282 45C98.282 45.0587 98.33 45.1067 98.426 45.144C98.5274 45.1813 98.69 45.2213 98.914 45.264C99.058 45.296 99.1434 45.3173 99.17 45.328C99.202 45.3333 99.2874 45.3547 99.426 45.392C99.57 45.4293 99.666 45.4587 99.714 45.48C99.762 45.5013 99.8447 45.5387 99.962 45.592C100.079 45.64 100.162 45.6853 100.21 45.728C100.258 45.7707 100.322 45.8293 100.402 45.904C100.487 45.9733 100.546 46.048 100.578 46.128C100.615 46.2027 100.647 46.2907 100.674 46.392C100.706 46.4933 100.722 46.6027 100.722 46.72C100.722 47.1147 100.533 47.448 100.154 47.72C99.7807 47.9867 99.2367 48.12 98.522 48.12C97.6207 48.12 96.9754 47.8667 96.586 47.36C96.4154 47.1467 96.3007 46.8933 96.242 46.6ZM101.767 47.472C101.308 47.04 101.079 46.5093 101.079 45.88C101.079 45.2507 101.308 44.72 101.767 44.288C102.226 43.856 102.81 43.64 103.519 43.64C104.228 43.64 104.812 43.856 105.271 44.288C105.73 44.72 105.959 45.2507 105.959 45.88V46H102.959C102.959 46.56 103.146 46.84 103.519 46.84C103.674 46.84 103.81 46.7813 103.927 46.664C103.98 46.6 104.018 46.5387 104.039 46.48H105.919C105.823 46.7893 105.671 47.064 105.463 47.304C104.983 47.848 104.335 48.12 103.519 48.12C102.81 48.12 102.226 47.904 101.767 47.472ZM102.999 45.48H104.039C104.034 45.3947 104.007 45.3013 103.959 45.2C103.858 45.0133 103.711 44.92 103.519 44.92C103.327 44.92 103.18 45.0133 103.079 45.2C103.031 45.3013 103.004 45.3947 102.999 45.48ZM108.482 43.76H110.322L110.922 46.48H111.042L111.642 43.76H113.522L112.01 49.52H110.162L110.602 48H109.522L108.482 43.76ZM114.416 47.48C113.952 47.048 113.72 46.5147 113.72 45.88C113.72 45.2453 113.952 44.7147 114.416 44.288C114.885 43.856 115.493 43.64 116.24 43.64C116.981 43.64 117.586 43.856 118.056 44.288C118.525 44.7147 118.76 45.2453 118.76 45.88C118.76 46.5147 118.525 47.048 118.056 47.48C117.586 47.9067 116.981 48.12 116.24 48.12C115.493 48.12 114.885 47.9067 114.416 47.48ZM115.776 45.296C115.658 45.4347 115.6 45.6293 115.6 45.88C115.6 46.1307 115.658 46.328 115.776 46.472C115.898 46.6107 116.053 46.68 116.24 46.68C116.426 46.68 116.578 46.6107 116.696 46.472C116.818 46.328 116.88 46.1307 116.88 45.88C116.88 45.6293 116.818 45.4347 116.696 45.296C116.578 45.152 116.426 45.08 116.24 45.08C116.053 45.08 115.898 45.152 115.776 45.296ZM119.317 46.4V43.76H121.157V46.08C121.157 46.2453 121.197 46.3733 121.277 46.464C121.357 46.5547 121.464 46.6 121.597 46.6C121.762 46.6 121.896 46.544 121.997 46.432C122.104 46.3147 122.157 46.1573 122.157 45.96V43.76H123.997V48H122.157V47.4H122.077C122.002 47.5333 121.901 47.6533 121.773 47.76C121.49 48 121.178 48.12 120.837 48.12C120.362 48.12 119.989 47.9733 119.717 47.68C119.45 47.3813 119.317 46.9547 119.317 46.4ZM124.715 48V43.76H126.475V44.4H126.555C126.603 44.272 126.673 44.152 126.763 44.04C126.961 43.8 127.211 43.68 127.515 43.68H127.875V45.44H127.107C126.91 45.44 126.769 45.4827 126.683 45.568C126.598 45.648 126.555 45.7787 126.555 45.96V48H124.715ZM130.559 48V42.4H132.399V46.76H133.359V48H130.559ZM134.337 47.48C133.873 47.048 133.641 46.5147 133.641 45.88C133.641 45.2453 133.873 44.7147 134.337 44.288C134.807 43.856 135.415 43.64 136.161 43.64C136.903 43.64 137.508 43.856 137.977 44.288C138.447 44.7147 138.681 45.2453 138.681 45.88C138.681 46.5147 138.447 47.048 137.977 47.48C137.508 47.9067 136.903 48.12 136.161 48.12C135.415 48.12 134.807 47.9067 134.337 47.48ZM135.697 45.296C135.58 45.4347 135.521 45.6293 135.521 45.88C135.521 46.1307 135.58 46.328 135.697 46.472C135.82 46.6107 135.975 46.68 136.161 46.68C136.348 46.68 136.5 46.6107 136.617 46.472C136.74 46.328 136.801 46.1307 136.801 45.88C136.801 45.6293 136.74 45.4347 136.617 45.296C136.5 45.152 136.348 45.08 136.161 45.08C135.975 45.08 135.82 45.152 135.697 45.296ZM139.775 47.48C139.311 47.048 139.079 46.5147 139.079 45.88C139.079 45.2453 139.311 44.7147 139.775 44.288C140.244 43.856 140.852 43.64 141.599 43.64C142.34 43.64 142.946 43.856 143.415 44.288C143.884 44.7147 144.119 45.2453 144.119 45.88C144.119 46.5147 143.884 47.048 143.415 47.48C142.946 47.9067 142.34 48.12 141.599 48.12C140.852 48.12 140.244 47.9067 139.775 47.48ZM141.135 45.296C141.018 45.4347 140.959 45.6293 140.959 45.88C140.959 46.1307 141.018 46.328 141.135 46.472C141.258 46.6107 141.412 46.68 141.599 46.68C141.786 46.68 141.938 46.6107 142.055 46.472C142.178 46.328 142.239 46.1307 142.239 45.88C142.239 45.6293 142.178 45.4347 142.055 45.296C141.938 45.152 141.786 45.08 141.599 45.08C141.412 45.08 141.258 45.152 141.135 45.296ZM144.676 48V42.4H146.516V45.12H146.796L147.436 43.76H149.316L148.316 45.8L149.436 48H147.556L146.876 46.64H146.516V48H144.676Z" fill="black"></path>
  </symbol>
  <symbol fill="none" xmlns="http://www.w3.org/2000/svg" viewBox="0 0 60 59" id="fb">
    <path d="M29.9278 0.117188C13.8556 0.117188 0.705566 13.2907 0.705566 29.5155C0.705566 44.1853 11.4009 56.3613 25.3691 58.5618V38.024H17.9467V29.5155H25.3691V23.0315C25.3691 15.6672 29.7233 11.6183 36.4152 11.6183C39.6004 11.6183 42.9317 12.1758 42.9317 12.1758V19.4227H39.2497C35.6262 19.4227 34.4865 21.6818 34.4865 23.9997V29.5155H42.6103L41.2953 38.024H34.4865V58.5618C41.3725 57.4699 47.6429 53.9423 52.1657 48.6158C56.6885 43.2893 59.1657 36.5149 59.1501 29.5155C59.1501 13.2907 46 0.117188 29.9278 0.117188Z" fill="#CACACA"></path>
  </symbol>
  <symbol fill="none" xmlns="http://www.w3.org/2000/svg" viewBox="0 0 60 59" id="instagram">
    <g clip-path="url(#clip0_8_20)">
      <path d="M24.4817 29.2223C24.4817 32.3115 26.9858 34.8156 30.075 34.8156C33.1642 34.8156 35.6683 32.3115 35.6683 29.2223C35.6683 26.1331 33.1642 23.629 30.075 23.629C26.9858 23.629 24.4817 26.1331 24.4817 29.2223Z" fill="#CACACA"></path>
      <path d="M16.994 19.3259C17.2629 18.5974 17.6919 17.9379 18.2492 17.3966C18.7906 16.8392 19.4496 16.4102 20.1786 16.1414C20.7699 15.9117 21.6581 15.6384 23.2941 15.5639C25.0639 15.4832 25.5945 15.4658 30.0749 15.4658C34.5557 15.4658 35.0863 15.4828 36.8556 15.5635C38.4916 15.6384 39.3803 15.9117 39.9711 16.1414C40.7001 16.4102 41.3596 16.8392 41.9005 17.3966C42.4579 17.9379 42.8868 18.5969 43.1561 19.3259C43.3858 19.9172 43.6591 20.8059 43.7336 22.4419C43.8143 24.2112 43.8317 24.7418 43.8317 29.2226C43.8317 33.703 43.8143 34.2336 43.7336 36.0034C43.6591 37.6394 43.3858 38.5276 43.1561 39.1189C42.8868 39.8479 42.4583 40.5069 41.9009 41.0483C41.3596 41.6056 40.7006 42.0346 39.9715 42.3035C39.3803 42.5335 38.4916 42.8069 36.8556 42.8813C35.0863 42.962 34.5561 42.979 30.0753 42.979C25.594 42.979 25.0634 42.962 23.2946 42.8813C21.6586 42.8069 20.7699 42.5335 20.1786 42.3035C18.7152 41.739 17.5585 40.5823 16.994 39.1189C16.7644 38.5276 16.4911 37.6394 16.4162 36.0034C16.3354 34.2336 16.3185 33.703 16.3185 29.2226C16.3185 24.7418 16.3354 24.2112 16.4162 22.4419C16.4906 20.8059 16.764 19.9172 16.994 19.3259ZM30.0749 37.8387C34.8339 37.8387 38.6918 33.9812 38.6918 29.2222C38.6918 24.4631 34.8339 20.6057 30.0749 20.6057C25.3163 20.6057 21.4584 24.4631 21.4584 29.2222C21.4584 33.9812 25.3163 37.8387 30.0749 37.8387ZM21.1177 22.2787C22.2298 22.2787 23.1314 21.3771 23.1314 20.265C23.1314 19.1529 22.2298 18.2513 21.1177 18.2513C20.0056 18.2513 19.104 19.1529 19.104 20.265C19.1045 21.3771 20.0056 22.2787 21.1177 22.2787Z" fill="#CACACA"></path>
      <path d="M30.075 0C46.2115 0 59.2972 13.0857 59.2972 29.2223C59.2972 45.3588 46.2115 58.4446 30.075 58.4446C13.9384 58.4446 0.852673 45.3588 0.852673 29.2223C0.852673 13.0857 13.9384 0 30.075 0ZM13.3962 36.1404C13.4773 37.9266 13.7614 39.1462 14.1761 40.2136C15.0478 42.4676 16.8296 44.2494 19.0836 45.1212C20.1506 45.5359 21.3706 45.8195 23.1564 45.9011C24.9458 45.9826 25.5174 46.0023 30.0745 46.0023C34.632 46.0023 35.2032 45.9826 36.993 45.9011C38.7789 45.8195 39.9988 45.5359 41.0659 45.1212C42.186 44.6998 43.1999 44.0394 44.0382 43.1855C44.8917 42.3477 45.552 41.3333 45.9734 40.2136C46.3881 39.1466 46.6721 37.9266 46.7533 36.1408C46.8358 34.351 46.8549 33.7794 46.8549 29.2223C46.8549 24.6652 46.8358 24.0936 46.7537 22.3042C46.6726 20.5179 46.389 19.2984 45.9743 18.2309C45.5529 17.1113 44.8921 16.0969 44.0382 15.259C43.2004 14.4051 42.186 13.7448 41.0663 13.3234C39.9988 12.9087 38.7793 12.6251 36.993 12.5435C35.2037 12.4619 34.632 12.4423 30.075 12.4423C25.5179 12.4423 24.9463 12.4619 23.1569 12.544C21.3706 12.6251 20.1511 12.9087 19.0836 13.3229C17.964 13.7443 16.9495 14.4051 16.1113 15.259C15.2578 16.0973 14.597 17.1113 14.1761 18.2309C13.7609 19.2984 13.4773 20.5179 13.3957 22.3042C13.3141 24.0936 13.295 24.6652 13.295 29.2223C13.295 33.7794 13.3141 34.351 13.3962 36.1404Z" fill="#CACACA"></path>
    </g>
    <defs>
      <clipPath id="clip0_8_20">
        <rect width="58.4446" height="58.4446" fill="white" transform="matrix(-1 0 0 1 59.2972 0)"></rect>
      </clipPath>
    </defs>
  </symbol>
  <symbol fill="none" xmlns="http://www.w3.org/2000/svg" viewBox="0 0 59 59" id="vk">
    <path d="M29.2223 0C13.0838 0 0 13.0832 0 29.2223C0 45.3614 13.0838 58.4446 29.2223 58.4446C45.3608 58.4446 58.4446 45.3614 58.4446 29.2223C58.4446 13.0832 45.3608 0 29.2223 0ZM44.0454 32.3828C45.4074 33.7131 46.8483 34.9651 48.071 36.4329C48.6127 37.0823 49.1233 37.7537 49.512 38.5088C50.0668 39.5857 49.5658 40.7665 48.602 40.8305L42.6152 40.8293C41.069 40.9572 39.8386 40.3336 38.8012 39.2765C37.9731 38.4341 37.2048 37.5343 36.4072 36.6631C36.0814 36.3056 35.7382 35.969 35.3292 35.7041C34.5131 35.1732 33.804 35.3358 33.3364 36.1884C32.8599 37.056 32.7511 38.0174 32.7056 38.983C32.6405 40.3946 32.2148 40.7635 30.7983 40.8299C27.7718 40.9716 24.9001 40.5124 22.2311 38.9866C19.8765 37.6407 18.0541 35.7412 16.4661 33.5905C13.3738 29.3981 11.0055 24.7966 8.8776 20.0631C8.39868 18.997 8.74905 18.4266 9.92511 18.4045C11.879 18.3668 13.833 18.3716 15.7869 18.4027C16.5821 18.4153 17.1083 18.8703 17.4138 19.6206C18.4697 22.2185 19.7641 24.6902 21.3862 26.9826C21.8185 27.593 22.2598 28.2017 22.8881 28.6328C23.5817 29.1087 24.1103 28.9514 24.4373 28.1772C24.6466 27.6851 24.7369 27.1589 24.7823 26.6316C24.9377 24.8253 24.9563 23.0197 24.6872 21.2206C24.5198 20.0948 23.8866 19.3677 22.7644 19.1549C22.1928 19.0467 22.2765 18.835 22.5545 18.5085C23.037 17.9441 23.489 17.595 24.3925 17.595L31.1565 17.5938C32.2225 17.803 32.4617 18.2813 32.6064 19.3552L32.6124 26.8719C32.5998 27.2875 32.821 28.5192 33.5672 28.7912C34.1651 28.9885 34.5597 28.509 34.9173 28.1305C36.5394 26.4092 37.6951 24.3775 38.7301 22.2747C39.1869 21.3474 39.5809 20.3877 39.9635 19.4263C40.2481 18.7154 40.6906 18.3656 41.493 18.3776L48.0065 18.3854C48.1984 18.3854 48.3933 18.3872 48.5834 18.4201C49.6812 18.6078 49.9819 19.0801 49.6423 20.151C49.1078 21.8335 48.0692 23.2349 47.054 24.64C45.9658 26.1443 44.8053 27.596 43.7279 29.1069C42.7378 30.488 42.8161 31.1834 44.0454 32.3828Z" fill="#CACACA"></path>
  </symbol>
   <symbol fill="none" xmlns="http://www.w3.org/2000/svg" viewBox="0 0 41 16" id="Arrow 1">
    <path d="M40.7071 8.70711C41.0976 8.31659 41.0976 7.68342 40.7071 7.2929L34.3431 0.928935C33.9526 0.538411 33.3195 0.538411 32.9289 0.928935C32.5384 1.31946 32.5384 1.95262 32.9289 2.34315L38.5858 8L32.9289 13.6569C32.5384 14.0474 32.5384 14.6805 32.9289 15.0711C33.3195 15.4616 33.9526 15.4616 34.3431 15.0711L40.7071 8.70711ZM-8.74228e-08 9L40 9L40 7L8.74228e-08 7L-8.74228e-08 9Z" fill="white"></path>
  </symbol>
</svg>